%TF.GenerationSoftware,KiCad,Pcbnew,9.0.8-9.0.8~ubuntu22.04.1*%
%TF.CreationDate,2026-03-23T11:35:06-05:00*%
%TF.ProjectId,BrushlessMocoBoard,42727573-686c-4657-9373-4d6f636f426f,rev?*%
%TF.SameCoordinates,Original*%
%TF.FileFunction,Paste,Top*%
%TF.FilePolarity,Positive*%
%FSLAX46Y46*%
G04 Gerber Fmt 4.6, Leading zero omitted, Abs format (unit mm)*
G04 Created by KiCad (PCBNEW 9.0.8-9.0.8~ubuntu22.04.1) date 2026-03-23 11:35:06*
%MOMM*%
%LPD*%
G01*
G04 APERTURE LIST*
G04 Aperture macros list*
%AMRoundRect*
0 Rectangle with rounded corners*
0 $1 Rounding radius*
0 $2 $3 $4 $5 $6 $7 $8 $9 X,Y pos of 4 corners*
0 Add a 4 corners polygon primitive as box body*
4,1,4,$2,$3,$4,$5,$6,$7,$8,$9,$2,$3,0*
0 Add four circle primitives for the rounded corners*
1,1,$1+$1,$2,$3*
1,1,$1+$1,$4,$5*
1,1,$1+$1,$6,$7*
1,1,$1+$1,$8,$9*
0 Add four rect primitives between the rounded corners*
20,1,$1+$1,$2,$3,$4,$5,0*
20,1,$1+$1,$4,$5,$6,$7,0*
20,1,$1+$1,$6,$7,$8,$9,0*
20,1,$1+$1,$8,$9,$2,$3,0*%
G04 Aperture macros list end*
%ADD10C,0.010000*%
%ADD11RoundRect,0.237500X-0.250000X-0.237500X0.250000X-0.237500X0.250000X0.237500X-0.250000X0.237500X0*%
%ADD12RoundRect,0.033750X0.101250X-0.396250X0.101250X0.396250X-0.101250X0.396250X-0.101250X-0.396250X0*%
%ADD13RoundRect,0.033750X0.396250X-0.101250X0.396250X0.101250X-0.396250X0.101250X-0.396250X-0.101250X0*%
%ADD14RoundRect,0.237500X-0.300000X-0.237500X0.300000X-0.237500X0.300000X0.237500X-0.300000X0.237500X0*%
%ADD15R,4.000000X1.500000*%
%ADD16RoundRect,0.237500X0.300000X0.237500X-0.300000X0.237500X-0.300000X-0.237500X0.300000X-0.237500X0*%
%ADD17O,5.100000X3.000000*%
%ADD18R,1.400000X1.600000*%
%ADD19RoundRect,0.237500X-0.287500X-0.237500X0.287500X-0.237500X0.287500X0.237500X-0.287500X0.237500X0*%
%ADD20RoundRect,0.237500X0.250000X0.237500X-0.250000X0.237500X-0.250000X-0.237500X0.250000X-0.237500X0*%
%ADD21RoundRect,0.237500X-0.237500X0.300000X-0.237500X-0.300000X0.237500X-0.300000X0.237500X0.300000X0*%
%ADD22RoundRect,0.237500X-0.237500X0.250000X-0.237500X-0.250000X0.237500X-0.250000X0.237500X0.250000X0*%
%ADD23RoundRect,0.150000X0.825000X0.150000X-0.825000X0.150000X-0.825000X-0.150000X0.825000X-0.150000X0*%
%ADD24RoundRect,0.237500X0.237500X-0.250000X0.237500X0.250000X-0.237500X0.250000X-0.237500X-0.250000X0*%
%ADD25RoundRect,0.250001X0.849999X-0.462499X0.849999X0.462499X-0.849999X0.462499X-0.849999X-0.462499X0*%
%ADD26R,1.701800X2.209800*%
G04 APERTURE END LIST*
D10*
%TO.C,U1*%
X86772000Y-98160000D02*
X85512000Y-98160000D01*
X85512000Y-96900000D01*
X86772000Y-96900000D01*
X86772000Y-98160000D01*
G36*
X86772000Y-98160000D02*
G01*
X85512000Y-98160000D01*
X85512000Y-96900000D01*
X86772000Y-96900000D01*
X86772000Y-98160000D01*
G37*
X88772000Y-98160000D02*
X87512000Y-98160000D01*
X87512000Y-96900000D01*
X88772000Y-96900000D01*
X88772000Y-98160000D01*
G36*
X88772000Y-98160000D02*
G01*
X87512000Y-98160000D01*
X87512000Y-96900000D01*
X88772000Y-96900000D01*
X88772000Y-98160000D01*
G37*
X86772000Y-96160000D02*
X85512000Y-96160000D01*
X85512000Y-94900000D01*
X86772000Y-94900000D01*
X86772000Y-96160000D01*
G36*
X86772000Y-96160000D02*
G01*
X85512000Y-96160000D01*
X85512000Y-94900000D01*
X86772000Y-94900000D01*
X86772000Y-96160000D01*
G37*
X88772000Y-96160000D02*
X87512000Y-96160000D01*
X87512000Y-94900000D01*
X88772000Y-94900000D01*
X88772000Y-96160000D01*
G36*
X88772000Y-96160000D02*
G01*
X87512000Y-96160000D01*
X87512000Y-94900000D01*
X88772000Y-94900000D01*
X88772000Y-96160000D01*
G37*
%TD*%
D11*
%TO.C,R17*%
X128928500Y-62357000D03*
X127103500Y-62357000D03*
%TD*%
D12*
%TO.C,U1*%
X83392000Y-100965000D03*
X83892000Y-100965000D03*
X84392000Y-100965000D03*
X84892000Y-100965000D03*
X85392000Y-100965000D03*
X85892000Y-100965000D03*
X86392000Y-100965000D03*
X86892000Y-100965000D03*
X87392000Y-100965000D03*
X87892000Y-100965000D03*
X88392000Y-100965000D03*
X88892000Y-100965000D03*
X89392000Y-100965000D03*
X89892000Y-100965000D03*
X90392000Y-100965000D03*
X90892000Y-100965000D03*
D13*
X91577000Y-100280000D03*
X91577000Y-99780000D03*
X91577000Y-99280000D03*
X91577000Y-98780000D03*
X91577000Y-98280000D03*
X91577000Y-97780000D03*
X91577000Y-97280000D03*
X91577000Y-96780000D03*
X91577000Y-96280000D03*
X91577000Y-95780000D03*
X91577000Y-95280000D03*
X91577000Y-94780000D03*
X91577000Y-94280000D03*
X91577000Y-93780000D03*
X91577000Y-93280000D03*
X91577000Y-92780000D03*
D12*
X90892000Y-92095000D03*
X90392000Y-92095000D03*
X89892000Y-92095000D03*
X89392000Y-92095000D03*
X88892000Y-92095000D03*
X88392000Y-92095000D03*
X87892000Y-92095000D03*
X87392000Y-92095000D03*
X86892000Y-92095000D03*
X86392000Y-92095000D03*
X85892000Y-92095000D03*
X85392000Y-92095000D03*
X84892000Y-92095000D03*
X84392000Y-92095000D03*
X83892000Y-92095000D03*
X83392000Y-92095000D03*
D13*
X82707000Y-92780000D03*
X82707000Y-93280000D03*
X82707000Y-93780000D03*
X82707000Y-94280000D03*
X82707000Y-94780000D03*
X82707000Y-95280000D03*
X82707000Y-95780000D03*
X82707000Y-96280000D03*
X82707000Y-96780000D03*
X82707000Y-97280000D03*
X82707000Y-97780000D03*
X82707000Y-98280000D03*
X82707000Y-98780000D03*
X82707000Y-99280000D03*
X82707000Y-99780000D03*
X82707000Y-100280000D03*
%TD*%
D11*
%TO.C,R7*%
X127969000Y-80772000D03*
X129794000Y-80772000D03*
%TD*%
D14*
%TO.C,C23*%
X95784500Y-92837000D03*
X97509500Y-92837000D03*
%TD*%
D15*
%TO.C,L2*%
X76454000Y-102338500D03*
X76454000Y-98738500D03*
%TD*%
D16*
%TO.C,C2*%
X77570500Y-96520000D03*
X75845500Y-96520000D03*
%TD*%
D17*
%TO.C,Conn6*%
X116196896Y-58734912D03*
%TD*%
D16*
%TO.C,C21*%
X107415500Y-123698000D03*
X105690500Y-123698000D03*
%TD*%
D18*
%TO.C,SW2*%
X134064000Y-65571000D03*
X134064000Y-72771000D03*
X131064000Y-65571000D03*
X131064000Y-72771000D03*
%TD*%
D19*
%TO.C,D3*%
X67094375Y-65786249D03*
X68844375Y-65786249D03*
%TD*%
D14*
%TO.C,C22*%
X95784500Y-94869000D03*
X97509500Y-94869000D03*
%TD*%
D20*
%TO.C,R14*%
X73075888Y-65788139D03*
X71250888Y-65788139D03*
%TD*%
D14*
%TO.C,C17*%
X95784500Y-96901000D03*
X97509500Y-96901000D03*
%TD*%
D21*
%TO.C,C15*%
X82297199Y-104819623D03*
X82297199Y-106544623D03*
%TD*%
D11*
%TO.C,R19*%
X131906000Y-80772000D03*
X133731000Y-80772000D03*
%TD*%
D17*
%TO.C,Conn5*%
X99565794Y-58734912D03*
%TD*%
D22*
%TO.C,R54*%
X129032000Y-71223500D03*
X129032000Y-73048500D03*
%TD*%
D23*
%TO.C,U2*%
X48195000Y-63119000D03*
X48195000Y-61849000D03*
X48195000Y-60579000D03*
X48195000Y-59309000D03*
X43245000Y-59309000D03*
X43245000Y-60579000D03*
X43245000Y-61849000D03*
X43245000Y-63119000D03*
%TD*%
D11*
%TO.C,R16*%
X101195500Y-123698000D03*
X103020500Y-123698000D03*
%TD*%
%TO.C,R18*%
X124032000Y-78740000D03*
X125857000Y-78740000D03*
%TD*%
D14*
%TO.C,C19*%
X130963500Y-62357000D03*
X132688500Y-62357000D03*
%TD*%
D24*
%TO.C,R6*%
X40760472Y-62126340D03*
X40760472Y-60301340D03*
%TD*%
D11*
%TO.C,R5*%
X124032000Y-80772000D03*
X125857000Y-80772000D03*
%TD*%
D17*
%TO.C,Conn9*%
X82919279Y-58734912D03*
%TD*%
D21*
%TO.C,C16*%
X86995000Y-104816500D03*
X86995000Y-106541500D03*
%TD*%
D14*
%TO.C,C20*%
X133681000Y-79248000D03*
X131956000Y-79248000D03*
%TD*%
%TO.C,C18*%
X95784500Y-98933000D03*
X97509500Y-98933000D03*
%TD*%
D25*
%TO.C,L3*%
X71752508Y-101581287D03*
X71752508Y-99256287D03*
%TD*%
D21*
%TO.C,C14*%
X84328663Y-104816500D03*
X84328663Y-106541500D03*
%TD*%
D20*
%TO.C,NTC_TH1*%
X111275402Y-121661612D03*
X109450402Y-121661612D03*
%TD*%
%TO.C,R22*%
X107465500Y-121666000D03*
X105640500Y-121666000D03*
%TD*%
%TO.C,R15*%
X103020500Y-121666000D03*
X101195500Y-121666000D03*
%TD*%
D26*
%TO.C,STPS1H100A1*%
X68077242Y-100042956D03*
X68077242Y-103903756D03*
%TD*%
D25*
%TO.C,L1*%
X71754235Y-106400766D03*
X71754235Y-104075766D03*
%TD*%
D19*
%TO.C,D1*%
X67079500Y-68580000D03*
X68829500Y-68580000D03*
%TD*%
D20*
%TO.C,R4*%
X73072000Y-68580000D03*
X71247000Y-68580000D03*
%TD*%
D18*
%TO.C,SW1*%
X134088000Y-52534000D03*
X134088000Y-59734000D03*
X131088000Y-52534000D03*
X131088000Y-59734000D03*
%TD*%
M02*
