M48
; DRILL file {KiCad 9.0.8-9.0.8~ubuntu22.04.1} date 2026-03-23T11:35:00-0500
; FORMAT={-:-/ absolute / inch / decimal}
; #@! TF.CreationDate,2026-03-23T11:35:00-05:00
; #@! TF.GenerationSoftware,Kicad,Pcbnew,9.0.8-9.0.8~ubuntu22.04.1
; #@! TF.FileFunction,Plated,1,4,PTH
FMAT,2
INCH
; #@! TA.AperFunction,Plated,PTH,ViaDrill
T1C0.0118
; #@! TA.AperFunction,Plated,PTH,ComponentDrill
T2C0.0300
; #@! TA.AperFunction,Plated,PTH,ComponentDrill
T3C0.0354
; #@! TA.AperFunction,Plated,PTH,ComponentDrill
T4C0.0394
; #@! TA.AperFunction,Plated,PTH,ComponentDrill
T5C0.0472
; #@! TA.AperFunction,Plated,PTH,ComponentDrill
T6C0.0787
%
G90
G05
T1
X1.4Y-4.6
X1.5Y-1.9
X1.5Y-2.2
X1.6Y-4.6
X1.6Y-4.8
X1.8Y-1.9
X1.8Y-2.2
X1.8Y-2.5
X1.8974Y-2.435
X1.9875Y-2.3932
X1.9875Y-2.4268
X2.1Y-1.9
X2.1Y-2.2
X2.1Y-2.5
X2.2799Y-2.655
X2.28Y-2.8551
X2.28Y-3.0551
X2.28Y-3.2551
X2.28Y-3.4551
X2.28Y-3.6551
X2.28Y-2.755
X2.28Y-2.955
X2.28Y-3.155
X2.28Y-3.355
X2.28Y-3.555
X2.28Y-3.755
X2.38Y-2.655
X2.38Y-2.855
X2.38Y-3.055
X2.38Y-3.255
X2.38Y-3.455
X2.38Y-3.655
X2.38Y-2.7549
X2.38Y-2.9549
X2.38Y-3.1549
X2.38Y-3.3549
X2.38Y-3.5549
X2.38Y-3.7549
X2.4Y-1.9
X2.4Y-2.2
X2.4Y-4.35
X2.425Y-2.49
X2.4798Y-2.6549
X2.48Y-2.855
X2.48Y-3.055
X2.48Y-3.255
X2.48Y-3.455
X2.48Y-3.655
X2.48Y-2.7549
X2.48Y-2.9549
X2.48Y-3.1549
X2.48Y-3.3549
X2.48Y-3.5549
X2.48Y-3.7549
X2.525Y-3.57
X2.55Y-4.355
X2.5548Y-3.7219
X2.57Y-4.3
X2.595Y-3.695
X2.595Y-4.27
X2.6409Y-2.7
X2.6415Y-2.59
X2.6802Y-4.0907
X2.7Y-1.9
X2.7Y-2.2
X2.7Y-2.49
X2.7Y-2.8
X2.7Y-3.1
X2.7Y-3.4
X2.765Y-3.77
X2.785Y-3.745
X2.82Y-2.89
X2.87Y-3.585
X2.9Y-3.1
X2.905Y-3.58
X2.94Y-3.8
X2.9479Y-3.5771
X2.985Y-3.575
X3.0Y-1.7
X3.0Y-1.9
X3.0Y-2.1
X3.0Y-2.3
X3.0Y-2.5
X3.025Y-4.315
X3.05Y-4.295
X3.054Y-3.8
X3.055Y-2.685
X3.055Y-2.73
X3.055Y-2.775
X3.0575Y-3.5725
X3.115Y-2.685
X3.115Y-2.73
X3.115Y-2.775
X3.175Y-2.685
X3.175Y-2.73
X3.175Y-2.775
X3.2Y-2.5
X3.2181Y-3.5969
X3.24Y-4.045
X3.24Y-4.1268
X3.24Y-4.1947
X3.2419Y-3.5731
X3.245Y-2.61
X3.25Y-2.8
X3.295Y-4.05
X3.3Y-1.7
X3.3Y-1.9
X3.3Y-2.1
X3.305Y-2.495
X3.305Y-2.54
X3.305Y-2.585
X3.32Y-4.1266
X3.32Y-4.1945
X3.325Y-2.8
X3.33Y-2.89
X3.3475Y-4.0375
X3.3609Y-3.1859
X3.365Y-2.495
X3.365Y-2.54
X3.365Y-2.585
X3.365Y-3.5544
X3.37Y-4.015
X3.385Y-3.755
X3.385Y-3.8
X3.385Y-3.85
X3.425Y-2.495
X3.425Y-2.54
X3.425Y-2.585
X3.425Y-4.1266
X3.425Y-4.1945
X3.43Y-3.8004
X3.4308Y-3.755
X3.4308Y-3.85
X3.455Y-3.2106
X3.48Y-3.755
X3.48Y-3.8
X3.48Y-3.85
X3.5Y-2.3
X3.5Y-2.5
X3.5Y-2.7
X3.5Y-2.8
X3.52Y-4.13
X3.564Y-4.129
X3.6Y-1.7
X3.6Y-1.9
X3.6Y-2.1
X3.6Y-2.8
X3.6Y-2.95
X3.605Y-4.13
X3.61Y-3.625
X3.65Y-4.076
X3.65Y-4.11
X3.657Y-3.5771
X3.675Y-2.3
X3.675Y-2.5
X3.675Y-3.61
X3.675Y-3.894
X3.68Y-4.2
X3.69Y-3.735
X3.6952Y-3.8698
X3.705Y-3.78
X3.715Y-2.685
X3.715Y-2.73
X3.715Y-2.775
X3.72Y-3.71
X3.725Y-4.355
X3.73Y-3.75
X3.73Y-4.775
X3.7348Y-3.8401
X3.7541Y-3.1859
X3.771Y-3.655
X3.771Y-3.735
X3.771Y-3.815
X3.771Y-3.895
X3.775Y-2.685
X3.775Y-2.73
X3.775Y-2.775
X3.8001Y-3.2351
X3.835Y-2.685
X3.835Y-2.73
X3.835Y-2.775
X3.839Y-3.655
X3.839Y-3.735
X3.839Y-3.815
X3.839Y-3.895
X3.85Y-4.195
X3.875Y-2.5
X3.8775Y-3.8375
X3.8875Y-4.8975
X3.895Y-2.6
X3.9Y-1.7
X3.9Y-1.9
X3.9Y-2.1
X3.91Y-3.73
X3.92Y-3.9648
X3.9447Y-3.2847
X3.96Y-2.5
X3.96Y-2.545
X3.96Y-2.59
X3.98Y-2.89
X3.985Y-3.626
X4.0Y-4.35
X4.02Y-2.5
X4.02Y-2.545
X4.02Y-2.59
X4.025Y-3.365
X4.025Y-4.0602
X4.025Y-4.095
X4.025Y-4.13
X4.055Y-3.355
X4.0559Y-4.87
X4.08Y-2.5
X4.08Y-2.545
X4.08Y-2.59
X4.1Y-3.7
X4.11Y-4.83
X4.115Y-3.185
X4.14Y-2.69
X4.15Y-2.8
X4.1591Y-4.79
X4.161Y-4.87
X4.175Y-2.3
X4.175Y-2.5
X4.2Y-1.7
X4.2Y-1.9
X4.2Y-2.1
X4.25Y-2.8
X4.25Y-2.95
X4.25Y-4.35
X4.325Y-2.3
X4.325Y-2.5
X4.35Y-3.7
X4.37Y-2.685
X4.37Y-2.73
X4.37Y-2.775
X4.43Y-2.685
X4.43Y-2.73
X4.43Y-2.775
X4.43Y-3.225
X4.49Y-2.685
X4.49Y-2.73
X4.49Y-2.775
X4.5Y-1.7
X4.5Y-1.9
X4.5Y-2.1
X4.5Y-4.35
X4.5Y-4.9
X4.525Y-2.5
X4.55Y-2.6
X4.6Y-3.7
X4.615Y-2.5
X4.615Y-2.545
X4.615Y-2.59
X4.65Y-2.89
X4.665Y-3.61
X4.675Y-2.5
X4.675Y-2.545
X4.675Y-2.59
X4.7Y-4.9
X4.715Y-3.28
X4.735Y-2.5
X4.735Y-2.545
X4.735Y-2.59
X4.75Y-4.35
X4.775Y-4.2202
X4.785Y-2.83
X4.8Y-1.7
X4.8Y-1.9
X4.8Y-2.1
X4.8Y-3.71
X4.81Y-2.7
X4.82Y-4.24
X4.825Y-2.3
X4.825Y-2.5
X4.835Y-3.71
X4.865Y-2.745
X4.865Y-2.83
X4.865Y-2.92
X4.865Y-3.47
X4.865Y-3.5015
X4.865Y-3.54
X4.865Y-3.575
X4.865Y-3.61
X4.865Y-3.645
X4.87Y-4.4635
X4.87Y-4.5
X4.87Y-4.535
X4.87Y-4.57
X4.87Y-4.605
X4.87Y-4.64
X4.87Y-4.675
X4.87Y-4.71
X4.87Y-4.745
X4.895Y-3.965
X4.9Y-4.9
X4.92Y-3.985
X4.945Y-4.005
X4.95Y-2.995
X4.97Y-3.915
X4.995Y-3.145
X4.995Y-3.23
X4.995Y-3.88
X5.02Y-3.845
X5.045Y-3.76
X5.05Y-2.75
X5.05Y-3.05
X5.07Y-3.78
X5.075Y-3.395
X5.08Y-2.8041
X5.095Y-3.8
X5.1Y-4.7
X5.15Y-3.14
X5.15Y-3.235
X5.224Y-2.455
X5.245Y-4.0
X5.263Y-3.12
X5.265Y-3.18
X5.2791Y-2.0683
X5.2791Y-2.3517
X5.315Y-3.225
X5.35Y-2.15
X5.35Y-2.45
X5.35Y-2.75
X5.35Y-3.05
X5.35Y-3.35
X5.35Y-3.65
X5.35Y-3.95
X5.35Y-4.25
X5.35Y-4.55
T2
X3.005Y-4.1591
X3.005Y-4.2181
T3
X1.345Y-2.05
X1.345Y-2.15
X1.345Y-2.375
X1.345Y-2.475
X1.67Y-1.76
X1.77Y-1.76
X1.87Y-1.76
X1.97Y-1.76
X2.2Y-1.76
X2.3Y-1.76
X2.4Y-1.76
X2.5Y-1.76
X2.725Y-1.75
X2.825Y-1.75
X2.9348Y-4.8382
X3.0348Y-4.8382
X3.1348Y-4.8382
X3.2348Y-4.8382
X3.464Y-4.8388
X3.564Y-4.8388
X3.664Y-4.8388
X5.245Y-3.34
X5.245Y-3.44
X5.245Y-3.54
X5.245Y-3.64
X5.245Y-3.74
X5.245Y-3.84
X5.245Y-4.06
X5.245Y-4.16
X5.245Y-4.26
X5.245Y-4.36
X5.245Y-4.46
X5.245Y-4.56
T4
X1.8098Y-4.9299
X1.9098Y-4.9299
X2.0098Y-4.9299
X2.1747Y-4.9299
X2.2747Y-4.9299
X2.3747Y-4.9299
X2.54Y-4.9299
X2.64Y-4.9299
X2.74Y-4.9299
T5
X1.5194Y-2.7528
X1.5194Y-3.0481
X1.52Y-3.4227
X1.52Y-3.718
X2.1899Y-2.7495
X2.1899Y-3.0448
X2.1899Y-3.425
X2.1899Y-3.7203
T6
G00X1.8979Y-4.037
M15
G01X1.8979Y-4.1197
M16
G05
G00X1.8979Y-4.347
M15
G01X1.8979Y-4.4297
M16
G05
G00X3.3059Y-2.3124
M15
G01X3.2232Y-2.3124
M16
G05
G00X3.9613Y-2.3124
M15
G01X3.8786Y-2.3124
M16
G05
G00X4.616Y-2.3124
M15
G01X4.5333Y-2.3124
M16
G05
M30
