%TF.GenerationSoftware,KiCad,Pcbnew,9.0.8-9.0.8~ubuntu22.04.1*%
%TF.CreationDate,2026-03-23T11:35:06-05:00*%
%TF.ProjectId,BrushlessMocoBoard,42727573-686c-4657-9373-4d6f636f426f,rev?*%
%TF.SameCoordinates,Original*%
%TF.FileFunction,Soldermask,Bot*%
%TF.FilePolarity,Negative*%
%FSLAX46Y46*%
G04 Gerber Fmt 4.6, Leading zero omitted, Abs format (unit mm)*
G04 Created by KiCad (PCBNEW 9.0.8-9.0.8~ubuntu22.04.1) date 2026-03-23 11:35:06*
%MOMM*%
%LPD*%
G01*
G04 APERTURE LIST*
G04 Aperture macros list*
%AMRoundRect*
0 Rectangle with rounded corners*
0 $1 Rounding radius*
0 $2 $3 $4 $5 $6 $7 $8 $9 X,Y pos of 4 corners*
0 Add a 4 corners polygon primitive as box body*
4,1,4,$2,$3,$4,$5,$6,$7,$8,$9,$2,$3,0*
0 Add four circle primitives for the rounded corners*
1,1,$1+$1,$2,$3*
1,1,$1+$1,$4,$5*
1,1,$1+$1,$6,$7*
1,1,$1+$1,$8,$9*
0 Add four rect primitives between the rounded corners*
20,1,$1+$1,$2,$3,$4,$5,0*
20,1,$1+$1,$4,$5,$6,$7,0*
20,1,$1+$1,$6,$7,$8,$9,0*
20,1,$1+$1,$8,$9,$2,$3,0*%
%AMFreePoly0*
4,1,9,0.571500,-0.266700,-0.012700,-0.266700,-0.012700,-0.215900,-0.571500,-0.215900,-0.571500,0.215900,-0.012700,0.215900,-0.012700,2.806700,0.571500,2.806700,0.571500,-0.266700,0.571500,-0.266700,$1*%
%AMFreePoly1*
4,1,9,-0.165100,0.215900,0.800100,0.215900,0.800100,-0.215900,-0.165100,-0.215900,-0.165100,-4.102100,-3.975100,-4.102100,-3.975100,0.292100,-0.165100,0.292100,-0.165100,0.215900,-0.165100,0.215900,$1*%
G04 Aperture macros list end*
%ADD10R,1.270000X1.270000*%
%ADD11C,1.270000*%
%ADD12R,1.700000X1.700000*%
%ADD13C,1.700000*%
%ADD14RoundRect,0.250001X0.949999X-0.949999X0.949999X0.949999X-0.949999X0.949999X-0.949999X-0.949999X0*%
%ADD15C,2.400000*%
%ADD16C,1.524000*%
%ADD17O,5.100000X3.000000*%
%ADD18C,2.946400*%
%ADD19O,3.000000X5.100000*%
%ADD20RoundRect,0.225000X0.375000X-0.225000X0.375000X0.225000X-0.375000X0.225000X-0.375000X-0.225000X0*%
%ADD21RoundRect,0.237500X-0.250000X-0.237500X0.250000X-0.237500X0.250000X0.237500X-0.250000X0.237500X0*%
%ADD22RoundRect,0.237500X0.237500X-0.250000X0.237500X0.250000X-0.237500X0.250000X-0.237500X-0.250000X0*%
%ADD23RoundRect,0.237500X-0.237500X0.250000X-0.237500X-0.250000X0.237500X-0.250000X0.237500X0.250000X0*%
%ADD24FreePoly0,270.000000*%
%ADD25R,0.431800X1.143000*%
%ADD26FreePoly1,270.000000*%
%ADD27R,0.431800X1.346200*%
%ADD28R,0.431800X0.965200*%
%ADD29FreePoly0,90.000000*%
%ADD30FreePoly1,90.000000*%
%ADD31RoundRect,0.237500X0.237500X-0.300000X0.237500X0.300000X-0.237500X0.300000X-0.237500X-0.300000X0*%
%ADD32RoundRect,0.237500X0.250000X0.237500X-0.250000X0.237500X-0.250000X-0.237500X0.250000X-0.237500X0*%
%ADD33RoundRect,0.250000X-0.625000X0.400000X-0.625000X-0.400000X0.625000X-0.400000X0.625000X0.400000X0*%
G04 APERTURE END LIST*
D10*
%TO.C,C13*%
X76327000Y-105640500D03*
D11*
X76327000Y-107139100D03*
%TD*%
D12*
%TO.C,J2*%
X60316976Y-125218465D03*
D13*
X57776976Y-125218465D03*
X55236976Y-125218465D03*
%TD*%
D14*
%TO.C,C7*%
X55623880Y-94496163D03*
D15*
X55623880Y-86996163D03*
%TD*%
D16*
%TO.C,Conn4*%
X82162848Y-122889783D03*
X79622848Y-122889783D03*
X77082848Y-122889783D03*
X74542848Y-122889783D03*
%TD*%
%TO.C,Conn2*%
X34163000Y-62865000D03*
X34163000Y-60325000D03*
%TD*%
%TO.C,Conn7*%
X69215000Y-44450000D03*
X71755000Y-44450000D03*
%TD*%
%TO.C,Conn8*%
X93066506Y-122904584D03*
X90526506Y-122904584D03*
X87986506Y-122904584D03*
%TD*%
D12*
%TO.C,J3*%
X69595648Y-125219593D03*
D13*
X67055648Y-125219593D03*
X64515648Y-125219593D03*
%TD*%
D17*
%TO.C,Conn6*%
X116196896Y-58734912D03*
%TD*%
D14*
%TO.C,C9*%
X38607442Y-94436514D03*
D15*
X38607442Y-86936514D03*
%TD*%
D18*
%TO.C,H1*%
X33908514Y-44576465D03*
%TD*%
%TO.C,H2*%
X133344851Y-44566724D03*
%TD*%
D17*
%TO.C,Conn5*%
X99565794Y-58734912D03*
%TD*%
%TO.C,Conn9*%
X82919279Y-58734912D03*
%TD*%
D16*
%TO.C,Conn10*%
X42418000Y-44704000D03*
X44958000Y-44704000D03*
X47498000Y-44704000D03*
X50038000Y-44704000D03*
%TD*%
%TO.C,Conn12*%
X133223000Y-84836000D03*
X133223000Y-87376000D03*
X133223000Y-89916000D03*
X133223000Y-92456000D03*
X133223000Y-94996000D03*
X133223000Y-97536000D03*
%TD*%
D18*
%TO.C,H4*%
X33898724Y-123057851D03*
%TD*%
D16*
%TO.C,Conn11*%
X55880000Y-44704000D03*
X58420000Y-44704000D03*
X60960000Y-44704000D03*
X63500000Y-44704000D03*
%TD*%
D12*
%TO.C,J1*%
X51049260Y-125218465D03*
D13*
X48509260Y-125218465D03*
X45969260Y-125218465D03*
%TD*%
D19*
%TO.C,Conn1*%
X48206897Y-103591062D03*
X48206897Y-111465062D03*
%TD*%
D18*
%TO.C,H3*%
X133343149Y-123057851D03*
%TD*%
D14*
%TO.C,C6*%
X55623880Y-77337796D03*
D15*
X55623880Y-69837796D03*
%TD*%
D14*
%TO.C,C4*%
X38593861Y-77420476D03*
D15*
X38593861Y-69920476D03*
%TD*%
D16*
%TO.C,Conn3*%
X34163000Y-54610000D03*
X34163000Y-52070000D03*
%TD*%
%TO.C,Conn13*%
X133223000Y-103124000D03*
X133223000Y-105664000D03*
X133223000Y-108204000D03*
X133223000Y-110744000D03*
X133223000Y-113284000D03*
X133223000Y-115824000D03*
%TD*%
D20*
%TO.C,D8*%
X119761000Y-78486000D03*
X119761000Y-75186000D03*
%TD*%
D21*
%TO.C,R24*%
X73255500Y-83312000D03*
X75080500Y-83312000D03*
%TD*%
D20*
%TO.C,D5*%
X96011852Y-78606336D03*
X96011852Y-75306336D03*
%TD*%
D22*
%TO.C,R45*%
X117094000Y-80795500D03*
X117094000Y-78970500D03*
%TD*%
%TO.C,R2*%
X90932000Y-80946000D03*
X90932000Y-79121000D03*
%TD*%
%TO.C,R48*%
X115062000Y-76985500D03*
X115062000Y-75160500D03*
%TD*%
D23*
%TO.C,R28*%
X93218000Y-79859500D03*
X93218000Y-81684500D03*
%TD*%
D20*
%TO.C,D2*%
X79375000Y-78611000D03*
X79375000Y-75311000D03*
%TD*%
D22*
%TO.C,R1*%
X83947000Y-80922500D03*
X83947000Y-79097500D03*
%TD*%
D21*
%TO.C,R35*%
X110339500Y-85344000D03*
X112164500Y-85344000D03*
%TD*%
D22*
%TO.C,R39*%
X81915000Y-80922500D03*
X81915000Y-79097500D03*
%TD*%
D21*
%TO.C,R36*%
X80875500Y-85344000D03*
X82700500Y-85344000D03*
%TD*%
D24*
%TO.C,Q5*%
X110560201Y-65990796D03*
D25*
X111830201Y-65990796D03*
X113100201Y-65990796D03*
X114370201Y-65990796D03*
D26*
X114370201Y-71375596D03*
D27*
X113100201Y-71502596D03*
D28*
X111830201Y-71693096D03*
X110560201Y-71693096D03*
%TD*%
D22*
%TO.C,R41*%
X88900000Y-80922500D03*
X88900000Y-79097500D03*
%TD*%
%TO.C,R13*%
X105537000Y-76096500D03*
X105537000Y-74271500D03*
%TD*%
%TO.C,R47*%
X122174000Y-80795500D03*
X122174000Y-78970500D03*
%TD*%
D21*
%TO.C,R20*%
X89765500Y-83312000D03*
X91590500Y-83312000D03*
%TD*%
D22*
%TO.C,R49*%
X122174000Y-76985500D03*
X122174000Y-75160500D03*
%TD*%
D29*
%TO.C,Q6*%
X120593201Y-67794196D03*
D25*
X119323201Y-67794196D03*
X118053201Y-67794196D03*
X116783201Y-67794196D03*
D30*
X116783201Y-62409396D03*
D27*
X118053201Y-62282396D03*
D28*
X119323201Y-62091896D03*
X120593201Y-62091896D03*
%TD*%
D31*
%TO.C,C10*%
X122936000Y-67791500D03*
X122936000Y-66066500D03*
%TD*%
D24*
%TO.C,Q3*%
X93923201Y-65990796D03*
D25*
X95193201Y-65990796D03*
X96463201Y-65990796D03*
X97733201Y-65990796D03*
D26*
X97733201Y-71375596D03*
D27*
X96463201Y-71502596D03*
D28*
X95193201Y-71693096D03*
X93923201Y-71693096D03*
%TD*%
D21*
%TO.C,R34*%
X111609500Y-83312000D03*
X113434500Y-83312000D03*
%TD*%
D22*
%TO.C,R12*%
X98552000Y-77112500D03*
X98552000Y-75287500D03*
%TD*%
D20*
%TO.C,D6*%
X112520640Y-78482861D03*
X112520640Y-75182861D03*
%TD*%
D22*
%TO.C,R40*%
X81914976Y-77111450D03*
X81914976Y-75286450D03*
%TD*%
D32*
%TO.C,R27*%
X91590500Y-85344000D03*
X89765500Y-85344000D03*
%TD*%
D29*
%TO.C,Q2*%
X87325200Y-67818000D03*
D25*
X86055200Y-67818000D03*
X84785200Y-67818000D03*
X83515200Y-67818000D03*
D30*
X83515200Y-62433200D03*
D27*
X84785200Y-62306200D03*
D28*
X86055200Y-62115700D03*
X87325200Y-62115700D03*
%TD*%
D21*
%TO.C,R37*%
X97385500Y-85344000D03*
X99210500Y-85344000D03*
%TD*%
D22*
%TO.C,R8*%
X98552000Y-80922500D03*
X98552000Y-79097500D03*
%TD*%
D31*
%TO.C,C3*%
X106299000Y-67791500D03*
X106299000Y-66066500D03*
%TD*%
D32*
%TO.C,R32*%
X108354500Y-85344000D03*
X106529500Y-85344000D03*
%TD*%
D33*
%TO.C,R43*%
X87375442Y-82644831D03*
X87375442Y-85744831D03*
%TD*%
D29*
%TO.C,Q4*%
X103956201Y-67781496D03*
D25*
X102686201Y-67781496D03*
X101416201Y-67781496D03*
X100146201Y-67781496D03*
D30*
X100146201Y-62396696D03*
D27*
X101416201Y-62269696D03*
D28*
X102686201Y-62079196D03*
X103956201Y-62079196D03*
%TD*%
D23*
%TO.C,R21*%
X76708000Y-79859500D03*
X76708000Y-81684500D03*
%TD*%
D21*
%TO.C,R29*%
X94845500Y-83312000D03*
X96670500Y-83312000D03*
%TD*%
D20*
%TO.C,D4*%
X86359093Y-78611157D03*
X86359093Y-75311157D03*
%TD*%
D22*
%TO.C,R11*%
X107569000Y-79906500D03*
X107569000Y-78081500D03*
%TD*%
%TO.C,R10*%
X105537000Y-79906500D03*
X105537000Y-78081500D03*
%TD*%
D21*
%TO.C,R26*%
X77065500Y-85344000D03*
X78890500Y-85344000D03*
%TD*%
D33*
%TO.C,R50*%
X104521000Y-82524000D03*
X104521000Y-85624000D03*
%TD*%
D22*
%TO.C,R42*%
X88900000Y-77112500D03*
X88900000Y-75287500D03*
%TD*%
D21*
%TO.C,R31*%
X106529500Y-83312000D03*
X108354500Y-83312000D03*
%TD*%
D24*
%TO.C,Q1*%
X77286201Y-65990796D03*
D25*
X78556201Y-65990796D03*
X79826201Y-65990796D03*
X81096201Y-65990796D03*
D26*
X81096201Y-71375596D03*
D27*
X79826201Y-71502596D03*
D28*
X78556201Y-71693096D03*
X77286201Y-71693096D03*
%TD*%
D22*
%TO.C,R44*%
X115062000Y-80795500D03*
X115062000Y-78970500D03*
%TD*%
D31*
%TO.C,C1*%
X89662000Y-67818000D03*
X89662000Y-66093000D03*
%TD*%
D20*
%TO.C,D7*%
X102997000Y-78612000D03*
X102997000Y-75312000D03*
%TD*%
D23*
%TO.C,R33*%
X109982000Y-79859500D03*
X109982000Y-81684500D03*
%TD*%
D21*
%TO.C,R23*%
X78335500Y-83312000D03*
X80160500Y-83312000D03*
%TD*%
%TO.C,R30*%
X93575500Y-85344000D03*
X95400500Y-85344000D03*
%TD*%
%TO.C,R38*%
X114149500Y-85344000D03*
X115974500Y-85344000D03*
%TD*%
D33*
%TO.C,R3*%
X70865602Y-82267333D03*
X70865602Y-85367333D03*
%TD*%
D22*
%TO.C,R46*%
X124206000Y-80795500D03*
X124206000Y-78970500D03*
%TD*%
%TO.C,R9*%
X100584000Y-80922500D03*
X100584000Y-79097500D03*
%TD*%
D32*
%TO.C,R25*%
X75080500Y-85344000D03*
X73255500Y-85344000D03*
%TD*%
M02*
