%TF.GenerationSoftware,KiCad,Pcbnew,9.0.8-9.0.8~ubuntu22.04.1*%
%TF.CreationDate,2026-03-23T11:35:06-05:00*%
%TF.ProjectId,BrushlessMocoBoard,42727573-686c-4657-9373-4d6f636f426f,rev?*%
%TF.SameCoordinates,Original*%
%TF.FileFunction,Soldermask,Top*%
%TF.FilePolarity,Negative*%
%FSLAX46Y46*%
G04 Gerber Fmt 4.6, Leading zero omitted, Abs format (unit mm)*
G04 Created by KiCad (PCBNEW 9.0.8-9.0.8~ubuntu22.04.1) date 2026-03-23 11:35:06*
%MOMM*%
%LPD*%
G01*
G04 APERTURE LIST*
G04 Aperture macros list*
%AMRoundRect*
0 Rectangle with rounded corners*
0 $1 Rounding radius*
0 $2 $3 $4 $5 $6 $7 $8 $9 X,Y pos of 4 corners*
0 Add a 4 corners polygon primitive as box body*
4,1,4,$2,$3,$4,$5,$6,$7,$8,$9,$2,$3,0*
0 Add four circle primitives for the rounded corners*
1,1,$1+$1,$2,$3*
1,1,$1+$1,$4,$5*
1,1,$1+$1,$6,$7*
1,1,$1+$1,$8,$9*
0 Add four rect primitives between the rounded corners*
20,1,$1+$1,$2,$3,$4,$5,0*
20,1,$1+$1,$4,$5,$6,$7,0*
20,1,$1+$1,$6,$7,$8,$9,0*
20,1,$1+$1,$8,$9,$2,$3,0*%
G04 Aperture macros list end*
%ADD10RoundRect,0.237500X-0.250000X-0.237500X0.250000X-0.237500X0.250000X0.237500X-0.250000X0.237500X0*%
%ADD11R,1.270000X1.270000*%
%ADD12C,1.270000*%
%ADD13RoundRect,0.033750X0.101250X-0.396250X0.101250X0.396250X-0.101250X0.396250X-0.101250X-0.396250X0*%
%ADD14RoundRect,0.033750X0.396250X-0.101250X0.396250X0.101250X-0.396250X0.101250X-0.396250X-0.101250X0*%
%ADD15R,4.000000X4.000000*%
%ADD16RoundRect,0.237500X-0.300000X-0.237500X0.300000X-0.237500X0.300000X0.237500X-0.300000X0.237500X0*%
%ADD17R,1.700000X1.700000*%
%ADD18C,1.700000*%
%ADD19RoundRect,0.250001X0.949999X-0.949999X0.949999X0.949999X-0.949999X0.949999X-0.949999X-0.949999X0*%
%ADD20C,2.400000*%
%ADD21C,1.524000*%
%ADD22RoundRect,0.102000X2.000000X-0.750000X2.000000X0.750000X-2.000000X0.750000X-2.000000X-0.750000X0*%
%ADD23RoundRect,0.237500X0.300000X0.237500X-0.300000X0.237500X-0.300000X-0.237500X0.300000X-0.237500X0*%
%ADD24O,5.100000X3.000000*%
%ADD25R,1.400000X1.600000*%
%ADD26RoundRect,0.237500X-0.287500X-0.237500X0.287500X-0.237500X0.287500X0.237500X-0.287500X0.237500X0*%
%ADD27C,2.946400*%
%ADD28RoundRect,0.237500X0.250000X0.237500X-0.250000X0.237500X-0.250000X-0.237500X0.250000X-0.237500X0*%
%ADD29RoundRect,0.237500X-0.237500X0.300000X-0.237500X-0.300000X0.237500X-0.300000X0.237500X0.300000X0*%
%ADD30RoundRect,0.237500X-0.237500X0.250000X-0.237500X-0.250000X0.237500X-0.250000X0.237500X0.250000X0*%
%ADD31RoundRect,0.150000X0.825000X0.150000X-0.825000X0.150000X-0.825000X-0.150000X0.825000X-0.150000X0*%
%ADD32RoundRect,0.237500X0.237500X-0.250000X0.237500X0.250000X-0.237500X0.250000X-0.237500X-0.250000X0*%
%ADD33RoundRect,0.250001X0.849999X-0.462499X0.849999X0.462499X-0.849999X0.462499X-0.849999X-0.462499X0*%
%ADD34O,3.000000X5.100000*%
%ADD35R,1.701800X2.209800*%
G04 APERTURE END LIST*
D10*
%TO.C,R17*%
X128928500Y-62357000D03*
X127103500Y-62357000D03*
%TD*%
D11*
%TO.C,C13*%
X76327000Y-105640500D03*
D12*
X76327000Y-107139100D03*
%TD*%
D13*
%TO.C,U1*%
X83392000Y-100965000D03*
X83892000Y-100965000D03*
X84392000Y-100965000D03*
X84892000Y-100965000D03*
X85392000Y-100965000D03*
X85892000Y-100965000D03*
X86392000Y-100965000D03*
X86892000Y-100965000D03*
X87392000Y-100965000D03*
X87892000Y-100965000D03*
X88392000Y-100965000D03*
X88892000Y-100965000D03*
X89392000Y-100965000D03*
X89892000Y-100965000D03*
X90392000Y-100965000D03*
X90892000Y-100965000D03*
D14*
X91577000Y-100280000D03*
X91577000Y-99780000D03*
X91577000Y-99280000D03*
X91577000Y-98780000D03*
X91577000Y-98280000D03*
X91577000Y-97780000D03*
X91577000Y-97280000D03*
X91577000Y-96780000D03*
X91577000Y-96280000D03*
X91577000Y-95780000D03*
X91577000Y-95280000D03*
X91577000Y-94780000D03*
X91577000Y-94280000D03*
X91577000Y-93780000D03*
X91577000Y-93280000D03*
X91577000Y-92780000D03*
D13*
X90892000Y-92095000D03*
X90392000Y-92095000D03*
X89892000Y-92095000D03*
X89392000Y-92095000D03*
X88892000Y-92095000D03*
X88392000Y-92095000D03*
X87892000Y-92095000D03*
X87392000Y-92095000D03*
X86892000Y-92095000D03*
X86392000Y-92095000D03*
X85892000Y-92095000D03*
X85392000Y-92095000D03*
X84892000Y-92095000D03*
X84392000Y-92095000D03*
X83892000Y-92095000D03*
X83392000Y-92095000D03*
D14*
X82707000Y-92780000D03*
X82707000Y-93280000D03*
X82707000Y-93780000D03*
X82707000Y-94280000D03*
X82707000Y-94780000D03*
X82707000Y-95280000D03*
X82707000Y-95780000D03*
X82707000Y-96280000D03*
X82707000Y-96780000D03*
X82707000Y-97280000D03*
X82707000Y-97780000D03*
X82707000Y-98280000D03*
X82707000Y-98780000D03*
X82707000Y-99280000D03*
X82707000Y-99780000D03*
X82707000Y-100280000D03*
D15*
X87142000Y-96530000D03*
%TD*%
D10*
%TO.C,R7*%
X127969000Y-80772000D03*
X129794000Y-80772000D03*
%TD*%
D16*
%TO.C,C23*%
X95784500Y-92837000D03*
X97509500Y-92837000D03*
%TD*%
D17*
%TO.C,J2*%
X60316976Y-125218465D03*
D18*
X57776976Y-125218465D03*
X55236976Y-125218465D03*
%TD*%
D19*
%TO.C,C7*%
X55623880Y-94496163D03*
D20*
X55623880Y-86996163D03*
%TD*%
D21*
%TO.C,Conn4*%
X82162848Y-122889783D03*
X79622848Y-122889783D03*
X77082848Y-122889783D03*
X74542848Y-122889783D03*
%TD*%
D22*
%TO.C,L2*%
X76454000Y-102338500D03*
X76454000Y-98738500D03*
%TD*%
D21*
%TO.C,Conn2*%
X34163000Y-62865000D03*
X34163000Y-60325000D03*
%TD*%
%TO.C,Conn7*%
X69215000Y-44450000D03*
X71755000Y-44450000D03*
%TD*%
%TO.C,Conn8*%
X93066506Y-122904584D03*
X90526506Y-122904584D03*
X87986506Y-122904584D03*
%TD*%
D23*
%TO.C,C2*%
X77570500Y-96520000D03*
X75845500Y-96520000D03*
%TD*%
D17*
%TO.C,J3*%
X69595648Y-125219593D03*
D18*
X67055648Y-125219593D03*
X64515648Y-125219593D03*
%TD*%
D24*
%TO.C,Conn6*%
X116196896Y-58734912D03*
%TD*%
D23*
%TO.C,C21*%
X107415500Y-123698000D03*
X105690500Y-123698000D03*
%TD*%
D25*
%TO.C,SW2*%
X134064000Y-65571000D03*
X134064000Y-72771000D03*
X131064000Y-65571000D03*
X131064000Y-72771000D03*
%TD*%
D19*
%TO.C,C9*%
X38607442Y-94436514D03*
D20*
X38607442Y-86936514D03*
%TD*%
D26*
%TO.C,D3*%
X67094375Y-65786249D03*
X68844375Y-65786249D03*
%TD*%
D27*
%TO.C,H1*%
X33908514Y-44576465D03*
%TD*%
D16*
%TO.C,C22*%
X95784500Y-94869000D03*
X97509500Y-94869000D03*
%TD*%
D28*
%TO.C,R14*%
X73075888Y-65788139D03*
X71250888Y-65788139D03*
%TD*%
D16*
%TO.C,C17*%
X95784500Y-96901000D03*
X97509500Y-96901000D03*
%TD*%
D29*
%TO.C,C15*%
X82297199Y-104819623D03*
X82297199Y-106544623D03*
%TD*%
D10*
%TO.C,R19*%
X131906000Y-80772000D03*
X133731000Y-80772000D03*
%TD*%
D27*
%TO.C,H2*%
X133344851Y-44566724D03*
%TD*%
D24*
%TO.C,Conn5*%
X99565794Y-58734912D03*
%TD*%
D30*
%TO.C,R54*%
X129032000Y-71223500D03*
X129032000Y-73048500D03*
%TD*%
D31*
%TO.C,U2*%
X48195000Y-63119000D03*
X48195000Y-61849000D03*
X48195000Y-60579000D03*
X48195000Y-59309000D03*
X43245000Y-59309000D03*
X43245000Y-60579000D03*
X43245000Y-61849000D03*
X43245000Y-63119000D03*
%TD*%
D10*
%TO.C,R16*%
X101195500Y-123698000D03*
X103020500Y-123698000D03*
%TD*%
%TO.C,R18*%
X124032000Y-78740000D03*
X125857000Y-78740000D03*
%TD*%
D16*
%TO.C,C19*%
X130963500Y-62357000D03*
X132688500Y-62357000D03*
%TD*%
D32*
%TO.C,R6*%
X40760472Y-62126340D03*
X40760472Y-60301340D03*
%TD*%
D10*
%TO.C,R5*%
X124032000Y-80772000D03*
X125857000Y-80772000D03*
%TD*%
D24*
%TO.C,Conn9*%
X82919279Y-58734912D03*
%TD*%
D29*
%TO.C,C16*%
X86995000Y-104816500D03*
X86995000Y-106541500D03*
%TD*%
D16*
%TO.C,C20*%
X133681000Y-79248000D03*
X131956000Y-79248000D03*
%TD*%
%TO.C,C18*%
X95784500Y-98933000D03*
X97509500Y-98933000D03*
%TD*%
D33*
%TO.C,L3*%
X71752508Y-101581287D03*
X71752508Y-99256287D03*
%TD*%
D29*
%TO.C,C14*%
X84328663Y-104816500D03*
X84328663Y-106541500D03*
%TD*%
D21*
%TO.C,Conn10*%
X42418000Y-44704000D03*
X44958000Y-44704000D03*
X47498000Y-44704000D03*
X50038000Y-44704000D03*
%TD*%
D28*
%TO.C,NTC_TH1*%
X111275402Y-121661612D03*
X109450402Y-121661612D03*
%TD*%
D21*
%TO.C,Conn12*%
X133223000Y-84836000D03*
X133223000Y-87376000D03*
X133223000Y-89916000D03*
X133223000Y-92456000D03*
X133223000Y-94996000D03*
X133223000Y-97536000D03*
%TD*%
D27*
%TO.C,H4*%
X33898724Y-123057851D03*
%TD*%
D28*
%TO.C,R22*%
X107465500Y-121666000D03*
X105640500Y-121666000D03*
%TD*%
D21*
%TO.C,Conn11*%
X55880000Y-44704000D03*
X58420000Y-44704000D03*
X60960000Y-44704000D03*
X63500000Y-44704000D03*
%TD*%
D17*
%TO.C,J1*%
X51049260Y-125218465D03*
D18*
X48509260Y-125218465D03*
X45969260Y-125218465D03*
%TD*%
D34*
%TO.C,Conn1*%
X48206897Y-103591062D03*
X48206897Y-111465062D03*
%TD*%
D28*
%TO.C,R15*%
X103020500Y-121666000D03*
X101195500Y-121666000D03*
%TD*%
D35*
%TO.C,STPS1H100A1*%
X68077242Y-100042956D03*
X68077242Y-103903756D03*
%TD*%
D33*
%TO.C,L1*%
X71754235Y-106400766D03*
X71754235Y-104075766D03*
%TD*%
D27*
%TO.C,H3*%
X133343149Y-123057851D03*
%TD*%
D19*
%TO.C,C6*%
X55623880Y-77337796D03*
D20*
X55623880Y-69837796D03*
%TD*%
D19*
%TO.C,C4*%
X38593861Y-77420476D03*
D20*
X38593861Y-69920476D03*
%TD*%
D26*
%TO.C,D1*%
X67079500Y-68580000D03*
X68829500Y-68580000D03*
%TD*%
D28*
%TO.C,R4*%
X73072000Y-68580000D03*
X71247000Y-68580000D03*
%TD*%
D25*
%TO.C,SW1*%
X134088000Y-52534000D03*
X134088000Y-59734000D03*
X131088000Y-52534000D03*
X131088000Y-59734000D03*
%TD*%
D21*
%TO.C,Conn3*%
X34163000Y-54610000D03*
X34163000Y-52070000D03*
%TD*%
%TO.C,Conn13*%
X133223000Y-103124000D03*
X133223000Y-105664000D03*
X133223000Y-108204000D03*
X133223000Y-110744000D03*
X133223000Y-113284000D03*
X133223000Y-115824000D03*
%TD*%
M02*
